{
    "accessors" : [
        {
            "bufferView" : 0, 
            "componentType" : 5123, 
            "count" : 15084, 
            "max" : [
                8675
            ], 
            "min" : [
                0
            ], 
            "type" : "SCALAR"
        }, 
        {
            "bufferView" : 1, 
            "componentType" : 5126, 
            "count" : 8676, 
            "max" : [
                13.548271179199219, 
                1.7676329612731934, 
                0.3097088634967804
            ], 
            "min" : [
                0.9589983224868774, 
                -1.7459619045257568, 
                -0.9987542629241943
            ], 
            "type" : "VEC3"
        }, 
        {
            "bufferView" : 2, 
            "componentType" : 5126, 
            "count" : 8676, 
            "max" : [
                1.0, 
                0.9995138645172119, 
                0.9995127320289612
            ], 
            "min" : [
                -1.0, 
                -0.9995130896568298, 
                -0.9996923804283142
            ], 
            "type" : "VEC3"
        }, 
        {
            "bufferView" : 3, 
            "componentType" : 5126, 
            "count" : 8676, 
            "max" : [
                1.0, 
                1.0000000298023224
            ], 
            "min" : [
                0.0, 
                0.0
            ], 
            "type" : "VEC2"
        }, 
        {
            "bufferView" : 4, 
            "componentType" : 5123, 
            "count" : 2388, 
            "max" : [
                1591
            ], 
            "min" : [
                0
            ], 
            "type" : "SCALAR"
        }, 
        {
            "bufferView" : 5, 
            "componentType" : 5126, 
            "count" : 1592, 
            "max" : [
                1.000000238418579, 
                1.055226445198059, 
                1.0791774988174438
            ], 
            "min" : [
                -1.0000004768371582, 
                -1.4855716228485107, 
                -2.0972275733947754
            ], 
            "type" : "VEC3"
        }, 
        {
            "bufferView" : 6, 
            "componentType" : 5126, 
            "count" : 1592, 
            "max" : [
                1.0, 
                1.0, 
                1.0
            ], 
            "min" : [
                -1.0, 
                -1.0, 
                -1.0
            ], 
            "type" : "VEC3"
        }, 
        {
            "bufferView" : 7, 
            "componentType" : 5126, 
            "count" : 1592, 
            "max" : [
                1.0, 
                1.0, 
                1.0, 
                1.0
            ], 
            "min" : [
                -1.0, 
                -1.0, 
                -1.0, 
                1.0
            ], 
            "type" : "VEC4"
        }, 
        {
            "bufferView" : 8, 
            "componentType" : 5126, 
            "count" : 1592, 
            "max" : [
                0.9999999403953552, 
                1.0
            ], 
            "min" : [
                0.0, 
                0.0
            ], 
            "type" : "VEC2"
        }, 
        {
            "bufferView" : 9, 
            "componentType" : 5123, 
            "count" : 15084, 
            "max" : [
                8694
            ], 
            "min" : [
                0
            ], 
            "type" : "SCALAR"
        }, 
        {
            "bufferView" : 10, 
            "componentType" : 5126, 
            "count" : 8695, 
            "max" : [
                -0.9976991415023804, 
                1.8220546245574951, 
                0.028941601514816284
            ], 
            "min" : [
                -13.5869722366333, 
                -1.8221101760864258, 
                -0.7188873291015625
            ], 
            "type" : "VEC3"
        }, 
        {
            "bufferView" : 11, 
            "componentType" : 5126, 
            "count" : 8695, 
            "max" : [
                1.0, 
                0.9979001879692078, 
                0.9981826543807983
            ], 
            "min" : [
                -1.0, 
                -0.9979026317596436, 
                -0.9981822371482849
            ], 
            "type" : "VEC3"
        }, 
        {
            "bufferView" : 12, 
            "componentType" : 5126, 
            "count" : 8695, 
            "max" : [
                1.0, 
                1.0000000298023224
            ], 
            "min" : [
                0.0, 
                0.0
            ], 
            "type" : "VEC2"
        }, 
        {
            "bufferView" : 13, 
            "componentType" : 5123, 
            "count" : 15270, 
            "max" : [
                7523
            ], 
            "min" : [
                0
            ], 
            "type" : "SCALAR"
        }, 
        {
            "bufferView" : 14, 
            "componentType" : 5126, 
            "count" : 7524, 
            "max" : [
                2.4337821006774902, 
                2.4051871299743652, 
                3.621659755706787
            ], 
            "min" : [
                -2.433781147003174, 
                -2.462374210357666, 
                1.0393195152282715
            ], 
            "type" : "VEC3"
        }, 
        {
            "bufferView" : 15, 
            "componentType" : 5126, 
            "count" : 7524, 
            "max" : [
                1.0, 
                1.0, 
                1.0
            ], 
            "min" : [
                -1.0, 
                -1.0, 
                -1.0
            ], 
            "type" : "VEC3"
        }
    ], 
    "asset" : {
        "generator" : "Khronos Blender glTF 2.0 exporter", 
        "version" : "2.0"
    }, 
    "bufferViews" : [
        {
            "buffer" : 0, 
            "byteLength" : 30168, 
            "byteOffset" : 0, 
            "target" : 34963
        }, 
        {
            "buffer" : 0, 
            "byteLength" : 104112, 
            "byteOffset" : 30168, 
            "target" : 34962
        }, 
        {
            "buffer" : 0, 
            "byteLength" : 104112, 
            "byteOffset" : 134280, 
            "target" : 34962
        }, 
        {
            "buffer" : 0, 
            "byteLength" : 69408, 
            "byteOffset" : 238392, 
            "target" : 34962
        }, 
        {
            "buffer" : 0, 
            "byteLength" : 4776, 
            "byteOffset" : 307800, 
            "target" : 34963
        }, 
        {
            "buffer" : 0, 
            "byteLength" : 19104, 
            "byteOffset" : 312576, 
            "target" : 34962
        }, 
        {
            "buffer" : 0, 
            "byteLength" : 19104, 
            "byteOffset" : 331680, 
            "target" : 34962
        }, 
        {
            "buffer" : 0, 
            "byteLength" : 25472, 
            "byteOffset" : 350784, 
            "target" : 34962
        }, 
        {
            "buffer" : 0, 
            "byteLength" : 12736, 
            "byteOffset" : 376256, 
            "target" : 34962
        }, 
        {
            "buffer" : 0, 
            "byteLength" : 30168, 
            "byteOffset" : 388992, 
            "target" : 34963
        }, 
        {
            "buffer" : 0, 
            "byteLength" : 104340, 
            "byteOffset" : 419160, 
            "target" : 34962
        }, 
        {
            "buffer" : 0, 
            "byteLength" : 104340, 
            "byteOffset" : 523500, 
            "target" : 34962
        }, 
        {
            "buffer" : 0, 
            "byteLength" : 69560, 
            "byteOffset" : 627840, 
            "target" : 34962
        }, 
        {
            "buffer" : 0, 
            "byteLength" : 30540, 
            "byteOffset" : 697400, 
            "target" : 34963
        }, 
        {
            "buffer" : 0, 
            "byteLength" : 90288, 
            "byteOffset" : 727940, 
            "target" : 34962
        }, 
        {
            "buffer" : 0, 
            "byteLength" : 90288, 
            "byteOffset" : 818228, 
            "target" : 34962
        }
    ], 
    "buffers" : [
        {
            "byteLength" : 908516, 
            "uri" : "satellite.bin"
        }
    ], 
    "images" : [
        {
            "name" : "satellite_wing", 
            "uri" : "satellite_wing.jpg"
        }, 
        {
            "name" : "satellite_body", 
            "uri" : "satellite_body.jpg"
        }
    ], 
    "materials" : [
        {
            "name" : "Material.001", 
            "pbrMetallicRoughness" : {
                "baseColorFactor" : [
                    0.6400000190734865, 
                    0.6400000190734865, 
                    0.6400000190734865, 
                    1.0
                ], 
                "baseColorTexture" : {
                    "index" : 0
                }, 
                "metallicFactor" : 0.0
            }
        }, 
        {
            "name" : "Material.002", 
            "pbrMetallicRoughness" : {
                "baseColorFactor" : [
                    0.6400000190734865, 
                    0.6400000190734865, 
                    0.6400000190734865, 
                    1.0
                ], 
                "baseColorTexture" : {
                    "index" : 1
                }, 
                "metallicFactor" : 0.0
            }
        }, 
        {
            "name" : "Material.003", 
            "pbrMetallicRoughness" : {
                "baseColorFactor" : [
                    0.1567857288835306, 
                    0.1567857288835306, 
                    0.1567857288835306, 
                    1.0
                ], 
                "metallicFactor" : 0.0
            }
        }
    ], 
    "meshes" : [
        {
            "name" : "Cylinder.000", 
            "primitives" : [
                {
                    "attributes" : {
                        "NORMAL" : 2, 
                        "POSITION" : 1, 
                        "TEXCOORD_0" : 3
                    }, 
                    "indices" : 0, 
                    "material" : 0
                }
            ]
        }, 
        {
            "name" : "Cube.010", 
            "primitives" : [
                {
                    "attributes" : {
                        "NORMAL" : 6, 
                        "POSITION" : 5, 
                        "TANGENT" : 7, 
                        "TEXCOORD_0" : 8
                    }, 
                    "indices" : 4, 
                    "material" : 1
                }
            ]
        }, 
        {
            "name" : "Cylinder.022", 
            "primitives" : [
                {
                    "attributes" : {
                        "NORMAL" : 11, 
                        "POSITION" : 10, 
                        "TEXCOORD_0" : 12
                    }, 
                    "indices" : 9, 
                    "material" : 0
                }
            ]
        }, 
        {
            "name" : "Cylinder.016", 
            "primitives" : [
                {
                    "attributes" : {
                        "NORMAL" : 15, 
                        "POSITION" : 14
                    }, 
                    "indices" : 13, 
                    "material" : 2
                }
            ]
        }
    ], 
    "nodes" : [
        {
            "name" : "Camera", 
            "rotation" : [
                0.483536034822464, 
                0.33687159419059753, 
                -0.20870360732078552, 
                0.7804827094078064
            ], 
            "translation" : [
                7.481131553649902, 
                5.34366512298584, 
                6.5076398849487305
            ]
        }, 
        {
            "mesh" : 1, 
            "name" : "Cube.010"
        }, 
        {
            "mesh" : 0, 
            "name" : "Cylinder.000"
        }, 
        {
            "mesh" : 3, 
            "name" : "Cylinder.016"
        }, 
        {
            "mesh" : 2, 
            "name" : "Cylinder.022"
        }, 
        {
            "name" : "Lamp", 
            "rotation" : [
                0.16907575726509094, 
                0.7558802962303162, 
                -0.27217137813568115, 
                0.570947527885437
            ], 
            "scale" : [
                1.0, 
                1.0, 
                0.9999999403953552
            ], 
            "translation" : [
                -4.507892608642578, 
                0.09658145904541016, 
                5.569247245788574
            ]
        }, 
        {
            "name" : "Lamp.001", 
            "rotation" : [
                0.16907575726509094, 
                0.7558802962303162, 
                -0.27217137813568115, 
                0.570947527885437
            ], 
            "scale" : [
                1.0, 
                1.0, 
                0.9999999403953552
            ], 
            "translation" : [
                -5.280010223388672, 
                4.2544474601745605, 
                -2.870917320251465
            ]
        }, 
        {
            "name" : "Lamp.002", 
            "rotation" : [
                0.16907575726509094, 
                0.7558802962303162, 
                -0.27217137813568115, 
                0.570947527885437
            ], 
            "scale" : [
                1.0, 
                1.0, 
                0.9999999403953552
            ], 
            "translation" : [
                2.1456332206726074, 
                4.540463447570801, 
                5.100671291351318
            ]
        }, 
        {
            "name" : "Lamp.003", 
            "rotation" : [
                0.16907575726509094, 
                0.7558802962303162, 
                -0.27217137813568115, 
                0.570947527885437
            ], 
            "scale" : [
                1.0, 
                1.0, 
                0.9999999403953552
            ], 
            "translation" : [
                6.250197410583496, 
                -5.97566556930542, 
                -4.422070026397705
            ]
        }
    ], 
    "samplers" : [
        {}
    ], 
    "scene" : 0, 
    "scenes" : [
        {
            "name" : "Scene", 
            "nodes" : [
                2, 
                8, 
                7, 
                6, 
                4, 
                1, 
                3, 
                5, 
                0
            ]
        }
    ], 
    "textures" : [
        {
            "sampler" : 0, 
            "source" : 0
        }, 
        {
            "sampler" : 0, 
            "source" : 1
        }
    ]
}
