{
    "accessors" : [
        {
            "bufferView" : 0, 
            "componentType" : 5123, 
            "count" : 2388, 
            "max" : [
                1591
            ], 
            "min" : [
                0
            ], 
            "type" : "SCALAR"
        }, 
        {
            "bufferView" : 1, 
            "componentType" : 5126, 
            "count" : 1592, 
            "max" : [
                1.0345031023025513, 
                1.431164026260376, 
                2.352849006652832
            ], 
            "min" : [
                -1.0180338621139526, 
                -2.04530930519104, 
                -1.4496079683303833
            ], 
            "type" : "VEC3"
        }, 
        {
            "bufferView" : 2, 
            "componentType" : 5126, 
            "count" : 1592, 
            "max" : [
                0.9998685121536255, 
                0.9962524175643921, 
                0.9968344569206238
            ], 
            "min" : [
                -0.9998685717582703, 
                -0.9962450861930847, 
                -0.9968353509902954
            ], 
            "type" : "VEC3"
        }, 
        {
            "bufferView" : 3, 
            "componentType" : 5126, 
            "count" : 1592, 
            "max" : [
                0.9999999403953552, 
                1.0
            ], 
            "min" : [
                0.0, 
                0.0
            ], 
            "type" : "VEC2"
        }, 
        {
            "bufferView" : 4, 
            "componentType" : 5123, 
            "count" : 15270, 
            "max" : [
                7571
            ], 
            "min" : [
                0
            ], 
            "type" : "SCALAR"
        }, 
        {
            "bufferView" : 5, 
            "componentType" : 5126, 
            "count" : 7572, 
            "max" : [
                2.405287981033325, 
                2.93625807762146, 
                -0.3052942752838135
            ], 
            "min" : [
                -2.4616353511810303, 
                -1.3982945680618286, 
                -3.4161083698272705
            ], 
            "type" : "VEC3"
        }, 
        {
            "bufferView" : 6, 
            "componentType" : 5126, 
            "count" : 7572, 
            "max" : [
                0.999868631362915, 
                0.9999737739562988, 
                0.9979325532913208
            ], 
            "min" : [
                -0.9998685717582703, 
                -0.9999858736991882, 
                -0.9979222416877747
            ], 
            "type" : "VEC3"
        }, 
        {
            "bufferView" : 7, 
            "componentType" : 5126, 
            "count" : 7572, 
            "max" : [
                0.0, 
                1.0
            ], 
            "min" : [
                0.0, 
                1.0
            ], 
            "type" : "VEC2"
        }, 
        {
            "bufferView" : 8, 
            "componentType" : 5123, 
            "count" : 30168, 
            "max" : [
                17695
            ], 
            "min" : [
                0
            ], 
            "type" : "SCALAR"
        }, 
        {
            "bufferView" : 9, 
            "componentType" : 5126, 
            "count" : 17696, 
            "max" : [
                13.59426212310791, 
                1.4279694557189941, 
                1.8710038661956787
            ], 
            "min" : [
                -13.547612190246582, 
                -1.6416592597961426, 
                -1.0395803451538086
            ], 
            "type" : "VEC3"
        }, 
        {
            "bufferView" : 10, 
            "componentType" : 5126, 
            "count" : 17696, 
            "max" : [
                0.999999463558197, 
                0.9989679455757141, 
                0.9988826513290405
            ], 
            "min" : [
                -0.9999804496765137, 
                -0.9989666938781738, 
                -0.9988815784454346
            ], 
            "type" : "VEC3"
        }, 
        {
            "bufferView" : 11, 
            "componentType" : 5126, 
            "count" : 17696, 
            "max" : [
                1.0, 
                1.0000000298023224
            ], 
            "min" : [
                0.0, 
                0.0
            ], 
            "type" : "VEC2"
        }
    ], 
    "asset" : {
        "generator" : "Khronos Blender glTF 2.0 exporter", 
        "version" : "2.0"
    }, 
    "bufferViews" : [
        {
            "buffer" : 0, 
            "byteLength" : 4776, 
            "byteOffset" : 0, 
            "target" : 34963
        }, 
        {
            "buffer" : 0, 
            "byteLength" : 19104, 
            "byteOffset" : 4776, 
            "target" : 34962
        }, 
        {
            "buffer" : 0, 
            "byteLength" : 19104, 
            "byteOffset" : 23880, 
            "target" : 34962
        }, 
        {
            "buffer" : 0, 
            "byteLength" : 12736, 
            "byteOffset" : 42984, 
            "target" : 34962
        }, 
        {
            "buffer" : 0, 
            "byteLength" : 30540, 
            "byteOffset" : 55720, 
            "target" : 34963
        }, 
        {
            "buffer" : 0, 
            "byteLength" : 90864, 
            "byteOffset" : 86260, 
            "target" : 34962
        }, 
        {
            "buffer" : 0, 
            "byteLength" : 90864, 
            "byteOffset" : 177124, 
            "target" : 34962
        }, 
        {
            "buffer" : 0, 
            "byteLength" : 60576, 
            "byteOffset" : 267988, 
            "target" : 34962
        }, 
        {
            "buffer" : 0, 
            "byteLength" : 60336, 
            "byteOffset" : 328564, 
            "target" : 34963
        }, 
        {
            "buffer" : 0, 
            "byteLength" : 212352, 
            "byteOffset" : 388900, 
            "target" : 34962
        }, 
        {
            "buffer" : 0, 
            "byteLength" : 212352, 
            "byteOffset" : 601252, 
            "target" : 34962
        }, 
        {
            "buffer" : 0, 
            "byteLength" : 141568, 
            "byteOffset" : 813604, 
            "target" : 34962
        }
    ], 
    "buffers" : [
        {
            "byteLength" : 955172, 
            "uri" : "satellite.bin"
        }
    ], 
    "images" : [
        {
            "name" : "satellite_wing", 
            "uri" : "satellite_wing.jpg"
        }, 
        {
            "name" : "satellite_body", 
            "uri" : "satellite_body.jpg"
        }
    ], 
    "materials" : [
        {
            "name" : "Material.001", 
            "pbrMetallicRoughness" : {
                "baseColorFactor" : [
                    0.6400000190734865, 
                    0.6400000190734865, 
                    0.6400000190734865, 
                    1.0
                ], 
                "baseColorTexture" : {
                    "index" : 0
                }, 
                "metallicFactor" : 0.0
            }
        }, 
        {
            "name" : "Material.002", 
            "pbrMetallicRoughness" : {
                "baseColorFactor" : [
                    0.6400000190734865, 
                    0.6400000190734865, 
                    0.6400000190734865, 
                    1.0
                ], 
                "baseColorTexture" : {
                    "index" : 1
                }, 
                "metallicFactor" : 0.0
            }
        }, 
        {
            "name" : "Material.003", 
            "pbrMetallicRoughness" : {
                "baseColorFactor" : [
                    0.1567857288835306, 
                    0.1567857288835306, 
                    0.1567857288835306, 
                    1.0
                ], 
                "metallicFactor" : 0.0
            }
        }
    ], 
    "meshes" : [
        {
            "name" : "Cylinder.000", 
            "primitives" : [
                {
                    "attributes" : {
                        "NORMAL" : 2, 
                        "POSITION" : 1, 
                        "TEXCOORD_0" : 3
                    }, 
                    "indices" : 0, 
                    "material" : 1
                }, 
                {
                    "attributes" : {
                        "NORMAL" : 6, 
                        "POSITION" : 5, 
                        "TEXCOORD_0" : 7
                    }, 
                    "indices" : 4, 
                    "material" : 2
                }, 
                {
                    "attributes" : {
                        "NORMAL" : 10, 
                        "POSITION" : 9, 
                        "TEXCOORD_0" : 11
                    }, 
                    "indices" : 8, 
                    "material" : 0
                }
            ]
        }
    ], 
    "nodes" : [
        {
            "name" : "Camera", 
            "rotation" : [
                0.483536034822464, 
                0.33687159419059753, 
                -0.20870360732078552, 
                0.7804827094078064
            ], 
            "translation" : [
                7.481131553649902, 
                5.34366512298584, 
                6.5076398849487305
            ]
        }, 
        {
            "mesh" : 0, 
            "name" : "Cylinder.000"
        }, 
        {
            "name" : "Lamp", 
            "rotation" : [
                0.16907575726509094, 
                0.7558802962303162, 
                -0.27217137813568115, 
                0.570947527885437
            ], 
            "scale" : [
                1.0, 
                1.0, 
                0.9999999403953552
            ], 
            "translation" : [
                -4.507892608642578, 
                0.09658145904541016, 
                5.569247245788574
            ]
        }, 
        {
            "name" : "Lamp.001", 
            "rotation" : [
                0.16907575726509094, 
                0.7558802962303162, 
                -0.27217137813568115, 
                0.570947527885437
            ], 
            "scale" : [
                1.0, 
                1.0, 
                0.9999999403953552
            ], 
            "translation" : [
                -5.280010223388672, 
                4.2544474601745605, 
                -2.870917320251465
            ]
        }, 
        {
            "name" : "Lamp.002", 
            "rotation" : [
                0.16907575726509094, 
                0.7558802962303162, 
                -0.27217137813568115, 
                0.570947527885437
            ], 
            "scale" : [
                1.0, 
                1.0, 
                0.9999999403953552
            ], 
            "translation" : [
                2.1456332206726074, 
                4.540463447570801, 
                5.100671291351318
            ]
        }, 
        {
            "name" : "Lamp.003", 
            "rotation" : [
                0.16907575726509094, 
                0.7558802962303162, 
                -0.27217137813568115, 
                0.570947527885437
            ], 
            "scale" : [
                1.0, 
                1.0, 
                0.9999999403953552
            ], 
            "translation" : [
                6.250197410583496, 
                -5.97566556930542, 
                -4.422070026397705
            ]
        }
    ], 
    "samplers" : [
        {}
    ], 
    "scene" : 0, 
    "scenes" : [
        {
            "name" : "Scene", 
            "nodes" : [
                1, 
                5, 
                4, 
                3, 
                2, 
                0
            ]
        }
    ], 
    "textures" : [
        {
            "sampler" : 0, 
            "source" : 0
        }, 
        {
            "sampler" : 0, 
            "source" : 1
        }
    ]
}
